<?xml version="1.0" encoding="utf-8"?>
<!-- Generator: Adobe Illustrator 23.1.0, SVG Export Plug-In . SVG Version: 6.00 Build 0)  -->
<svg version="1.1" id="Layer_5" xmlns="http://www.w3.org/2000/svg" xmlns:xlink="http://www.w3.org/1999/xlink" x="0px" y="0px"
	 viewBox="0 0 480 424" style="enable-background:new 0 0 480 424;" xml:space="preserve">
<g>
	<path d="M184,39.6c17.8-5,36.6-7.6,56-7.6c55.4,0,105.7,21.7,143,57l-15,15l64,16l-16-64l-10.4,10.4C362.5,25.3,304.2,0,240,0
		c-22.2,0-43.6,3-64,8.6V40L184,39.6z"/>
	<path d="M8.6,304H40l-0.4-8c-5-17.8-7.6-36.6-7.6-56c0-55.4,21.7-105.7,57-143l15,15l16-64L56,64l10.4,10.4
		C25.3,117.5,0,175.8,0,240C0,262.2,3,283.6,8.6,304z"/>
	<path d="M448,216c0,55.4-21.7,105.7-57,143l-15-15l-16,64l64-16l-10.4-10.4C454.7,338.5,480,280.2,480,216c0-22.2-3-43.6-8.6-64
		H440l0.4,8C445.3,177.8,448,196.6,448,216z"/>
	<path d="M192,424V280H80v144h256V320h24c26.5,0,48-21.5,48-48h-32c-16.7,0-31.4,8.5-40,21.5V240h24c26.5,0,48-21.5,48-48h-32
		c-16.7,0-31.4,8.5-40,21.5V208c0-26.5-21.5-48-48-48h-32c0,26.5,21.5,48,48,48h16v53.5c-8.6-12.9-23.3-21.5-40-21.5h-32
		c0,26.5,21.5,48,48,48h24v136h-80V152H96v112h112v160 M128,248h-16v-16h16V248z M128,216h-16v-16h16V216z M128,184h-16v-16h16V184z
		 M160,248h-16v-16h16V248z M160,216h-16v-16h16V216z M160,184h-16v-16h16V184z M192,248h-16v-16h16V248z M192,216h-16v-16h16V216z
		 M192,184h-16v-16h16V184z M208,168h16v16h-16V168z M208,200h16v16h-16V200z M208,232h16v16h-16V232z M160,296h16v16h-16V296z
		 M160,328h16v16h-16V328z M160,360h16v16h-16V360z M128,296h16v16h-16V296z M128,328h16v16h-16V328z M128,360h16v16h-16V360z
		 M96,296h16v16H96V296z M96,328h16v16H96V328z M96,360h16v16H96V360z"/>
</g>
</svg>
