<?xml version="1.0" encoding="utf-8"?>
<!-- Generator: Adobe Illustrator 24.3.0, SVG Export Plug-In . SVG Version: 6.00 Build 0)  -->
<svg version="1.1" id="iconSVG" xmlns="http://www.w3.org/2000/svg" xmlns:xlink="http://www.w3.org/1999/xlink" x="0px" y="0px"
	 viewBox="0 0 512 512" style="enable-background:new 0 0 512 512;" xml:space="preserve">
<g>
	<path d="M299.6,451.8H119.4V512h0.7h179.6V451.8z"/>
	<path d="M299.6,421.8v-93.2H90V286c0-8.3,6.7-15,15-15h14.4v27.4h180.2V214H119.4v27H105c-24.8,0-45,20.2-45,45v42.6H45.5
		C20.7,328.7,0,349.1,0,373.9V512h30.5V373.9c0-8.3,6.7-15,15-15H60V512h30V358.9h29.4v62.9L299.6,421.8z"/>
	<path d="M127.8,184h163.3l-66.1-69.9V30h182.1v83.2l-67,70.9h163.3l-66.3-70.2V0H195.1v112.9L127.8,184z"/>
	<path d="M331.8,451.8H512V512H331.8V451.8z"/>
	<path d="M331.8,328.7H512v93.2H331.8V328.7z"/>
	<path d="M331.8,214H512v84.4H331.8V214z"/>
</g>
</svg>
