<?xml version="1.0" encoding="utf-8"?>
<svg id="Capa_1" enable-background="new 0 0 512 512" height="512" viewBox="0 0 512 512" width="512" xmlns="http://www.w3.org/2000/svg"><g><path d="m299.614 451.817h-180.24v60.183h.684 179.556z"/><path d="m299.614 421.817v-93.152h-209.664v-42.641c0-8.271 6.729-15 15-15h14.423v27.396h180.24v-84.396h-180.24v27h-14.423c-24.813 0-45 20.187-45 45v42.641h-14.423c-24.813 0-45.527 20.431-45.527 45.244v138.091h30.527v-138.091c0-8.271 6.729-15 15-15h14.423v153.091h30v-153.091h29.423v62.908z"/><path d="m127.84 184.024h163.307l-66.081-69.91v-84.114h182.133v83.17l-66.973 70.854h163.307l-66.334-70.179v-113.845h-242.133v112.902z"/><path d="m331.759 451.817h180.241v60.183h-180.241z"/><path d="m331.759 328.665h180.241v93.152h-180.241z"/><path d="m331.759 214.024h180.241v84.396h-180.241z"/></g></svg>