<?xml version="1.0" encoding="utf-8"?>
<!-- Generator: Adobe Illustrator 24.3.0, SVG Export Plug-In . SVG Version: 6.00 Build 0)  -->
<svg version="1.1" id="iconSVG" xmlns="http://www.w3.org/2000/svg" xmlns:xlink="http://www.w3.org/1999/xlink" x="0px" y="0px"
	 viewBox="0 0 134 134" style="enable-background:new 0 0 134 134;" xml:space="preserve">
<g id="surface1">
	<path d="M58,124.2h19.7l-7.4-65c2.7-1.4,3.8-4.7,2.4-7.4c-1.4-2.7-4.7-3.8-7.4-2.4c-2.7,1.4-3.8,4.7-2.4,7.4c0.5,1,1.4,1.9,2.4,2.4
		L58,124.2z"/>
	<path d="M56.8,134h22l-0.7-6.1H57.5L56.8,134z"/>
	<path d="M72.7,61c6.5,4.5,26.3,16.9,44.8,15.4l0.1-0.2c-11.4-14.7-34-20.8-41.6-22.6c0,0.3,0,0.5,0,0.8C76,57,74.8,59.4,72.7,61z"
		/>
	<path d="M62.6,60.8c-2.2-1.8-3.3-4.6-2.9-7.5C52,54.7,29.1,60,17.1,74.1l0.1,0.2C35.6,76.6,56,64.9,62.6,60.8z"/>
	<path d="M67.8,46.2c1.4,0,2.8,0.4,4,1.1c1.5-7.7,5-30.9-3.9-47.3h-0.2c-8.8,16.3-5.4,39.5-3.9,47.3C65,46.6,66.4,46.2,67.8,46.2z"
		/>
</g>
</svg>
