<?xml version="1.0" encoding="utf-8"?>
<!-- Generator: Adobe Illustrator 23.1.0, SVG Export Plug-In . SVG Version: 6.00 Build 0)  -->
<svg version="1.1" id="iconSVG" xmlns="http://www.w3.org/2000/svg" xmlns:xlink="http://www.w3.org/1999/xlink" x="0px" y="0px"
	 viewBox="0 0 512 380.7" style="enable-background:new 0 0 512 380.7;" xml:space="preserve">
<path id="XMLID_1906_" d="M485.1,280.2L271,156.1v-9.2c0-10.5,6-20.3,15.7-25.6c21.8-11.8,34.7-34.5,33.8-59.3
	c-1.3-33.5-28.5-60.7-62-62c-17.7-0.7-34.5,5.7-47.2,18c-12.8,12.3-19.8,28.8-19.8,46.5c0,8.3,6.7,15,15,15s15-6.7,15-15
	c0-9.5,3.8-18.3,10.6-24.9c6.8-6.6,15.8-10,25.3-9.6c17.9,0.7,32.5,15.2,33.1,33.2c0.5,13.3-6.4,25.4-18.1,31.8
	C253,105.4,241,125.3,241,146.8v9.2L26.9,280.2C10.3,289.8,0,307.6,0,326.8c0,29.7,24.2,53.9,53.9,53.9h404.2
	c29.7,0,53.9-24.2,53.9-53.9C512,307.6,501.7,289.8,485.1,280.2z M458.1,350.7H53.9C40.7,350.7,30,340,30,326.8
	c0-8.5,4.6-16.4,11.9-20.7L256,182.1l214.1,124.1c7.4,4.3,11.9,12.2,11.9,20.7C482,340,471.3,350.7,458.1,350.7z"/>
</svg>
