<?xml version="1.0" encoding="utf-8"?>
<!-- Generator: Adobe Illustrator 24.3.0, SVG Export Plug-In . SVG Version: 6.00 Build 0)  -->
<svg version="1.1" id="Layer_1" xmlns="http://www.w3.org/2000/svg" xmlns:xlink="http://www.w3.org/1999/xlink" x="0px" y="0px"
	 viewBox="-50 0 1000 454.7" style="enable-background:new 0 0 259.5 227.35;" xml:space="preserve">
<style type="text/css">
	.st0{fill:#D03634;}
</style>
<path class="st0" d="M136.3,161.6L65.2,90.5v241.5l16.6,16.1l53.9-52.9l47.9,46.9l-97.8,96.8L0.2,352.6v-246l90.7-90.7l94.8,95.8
	L136.3,161.6z"/>
<path class="st0" d="M282,438.8l-85.7-86.2v-246L287,15.9l92.8,92.8V342L282,438.8z M314.3,141.4l-52.9-52.9v243.5l17.1,16.6
	l35.8-35.8V141.4z"/>
<g>
	<path class="st0" d="M456.5,438.8l-54.2-54.2v-49.2l79.9-79.6v-52l-53,53.3l-27-27.3l57.4-57.1L519,233v40.6l-86.3,86.9l33,33.3
		H519v45H456.5z"/>
</g>
</svg>