<?xml version="1.0" encoding="utf-8"?>
<!-- Generator: Adobe Illustrator 24.3.0, SVG Export Plug-In . SVG Version: 6.00 Build 0)  -->
<svg version="1.1" id="iconSVG" xmlns="http://www.w3.org/2000/svg" xmlns:xlink="http://www.w3.org/1999/xlink" x="0px" y="0px"
	 viewBox="0 0 2863.8 1881" style="enable-background:new 0 0 2863.8 1881;" xml:space="preserve">
<style type="text/css">
	.st01{fill-rule:evenodd;clip-rule:evenodd;}
	.st11{fill-rule:evenodd;clip-rule:evenodd;fill:#FFFFFF;}
	.st21{fill-rule:evenodd;clip-rule:evenodd;stroke:#ECC39B;stroke-width:0.5669;stroke-miterlimit:22.9256;}
	.st31{fill-rule:evenodd;clip-rule:evenodd;stroke:#D73533;stroke-width:0.5669;stroke-miterlimit:22.9256;}
	.st41{fill-rule:evenodd;clip-rule:evenodd;fill:#FFFFFF;stroke:#000000;stroke-width:5;stroke-miterlimit:10;}
</style>
<path class="st01" d="M1431.9,309.1c323,0,621.1,58.7,860.6,157.8h0.1l0.4,0.2c82.4,34.1,157.8,72.9,225,115.8l345,177.6l-0.4,302.6
	c0.8,10.6,1.3,21.3,1.3,32c0,11.1-0.5,22.2-1.4,33.3v1.4l-0.1,0.1c-33.1,417.9-660.8,751.2-1430.4,751.2C641.1,1881,0,1529.1,0,1095
	V788.2C187.4,553.3,447.4,444.6,752.6,403C954.7,343.1,1186.1,309.1,1431.9,309.1z"/>
<path class="st11" d="M715.1,1775.6c-29.7-9.4-58.7-19.4-87-30v-535.3h87V1775.6L715.1,1775.6z M499.8,1691.7
	C394.5,1642,302.4,1584.2,227,1519.9v-477.7h272.8V1691.7z"/>
<ellipse class="st01" cx="1431.9" cy="788.2" rx="1431.9" ry="786"/>
<path class="st11" d="M2136.7,137.4v342.2c-105.3-51.3-197.4-111.1-272.8-177.6V64.8c36.5,8.6,78,17.6,116.7,27.2
	c52.7,13,100.1,27,140.4,40.2C2126.3,133.9,2131.6,135.7,2136.7,137.4L2136.7,137.4z M2352,228.5v337.8c-29.7-9.8-58.7-20.1-87-31
	V186.7c10.4,4.6,20.7,9.3,31.5,14.4C2315.5,210.2,2336.1,220.5,2352,228.5z"/>
<path class="st11" d="M1431.9,246.6c701.4,0,1283.6,239.6,1395.3,553.9c12.7,35.8-32.6,706.1-1395.2,757.9
	c-781.3,0-1426.4-393.7-1392.8-764.7C156.7,482.7,735.5,246.6,1431.9,246.6z"/>
<path class="st01" d="M632.5,884.9c-124.8,63.4-155.2,130.3-163.5,192.7s5.4,120.4,42.6,171.1c37.2,50.6,97.9,93.9,188,128.3
	s209.5,60,345.1,66.4s287.3-6.4,402.9-31.1c115.5-24.7,194.8-61.3,258.5-99.3c63.6-38,111.6-77.3,156.1-100.5s85.7-30.4,143.9-32.6
	c58.3-2.2,133.6,0.5,214.9-14.4s168.4-47.3,222.2-84.2c53.8-36.9,74.4-78.2,82.7-115.6c8.3-37.5,4.4-71.2-25.5-114
	c-29.9-42.9-85.7-95-208.5-134.8c-122.9-39.8-312.8-67.3-506.6-67.8s-391.6,26.1-600.1,69.3C976.6,761.5,757.3,821.4,632.5,884.9z"
	/>
<path class="st11" d="M614.5,636.3c-36.4,33.6-82.7,72.3-106.8,107.4c-24.1,35.1-26.2,66.6-23.1,137.8s11.4,182,34.5,260.3
	c23.2,78.3,61.3,124,158,162.6s252,70,399.7,72.9s287.7-22.9,391.8-48c104.1-25.1,172.2-49.6,229.8-82.7
	c57.6-33.1,104.8-74.9,152.4-96.2c47.6-21.4,95.7-22.3,173.4-25.5c77.7-3.2,184.9-8.7,264.3-34c79.5-25.3,131.2-70.5,160.6-114.3
	c29.4-43.8,36.5-86.1,39.5-132.4c3-46.2,2-96.4,0.5-125.7s-3.4-37.8-159-48.9c-155.6-11.1-464.9-24.7-761.5-45.8
	s-580.5-49.7-735.8-49.7C677.6,574.1,651,602.7,614.5,636.3z"/>
<path class="st21" d="M2490,817.3c1.3-37.8,0.4-75.1-0.8-98.8c-1.5-29.3-3.4-37.8-159-48.9c-155.6-11.1-464.9-24.7-761.5-45.8
	c-53.6-3.8-106.7-7.9-158.8-12c-36.3,4.4-72.5,9.6-108.4,15.7C1046.9,670.8,811,760.2,682.7,820.7s-148.9,91.9-134.2,131.7
	c14.7,39.8,64.9,88,138.6,125.8s171.1,65.4,296.4,78.2c125.3,12.8,278.7,10.8,404.1-7.4c125.3-18.2,222.7-52.6,303.8-89.5
	s146-76.2,233.5-82.6c87.5-6.4,197.6,20.2,303.3,5.9s206.9-69.3,253.1-148.9C2484.5,828.5,2487.4,822.9,2490,817.3z"/>
<path class="st11" d="M2318.2,539.8c-108.6-49.5-283.9-110.5-503.1-149.9s-482.3-57.1-697.6-32.3c-215.3,24.8-382.8,92.1-491.3,181
	C517.6,627.5,468,738,479.5,841.8c11.4,103.8,83.8,201,265.8,244.8c182,43.8,473.5,34.3,664,6.7c190.5-27.6,280.1-73.4,342-105.7
	c61.9-32.4,96.2-51.4,179.1-53.3c82.9-1.9,214.4,13.3,313.4-2.9c99.1-16.2,165.8-63.8,204.8-113.4c39.1-49.5,50.5-101,35.3-145.8
	C2468.7,627.5,2426.8,589.4,2318.2,539.8z"/>
<path class="st01" d="M2286.3,544.7c-104.6-45.2-273.5-100.9-484.8-136.8c-211.2-35.9-464.7-52.1-672.2-29.5
	C922,400.9,760.6,462.4,656,543.5s-152.3,182-141.3,276.8s80.8,183.5,256.1,223.5c175.3,40,456.2,31.3,639.8,6.1
	c183.6-25.2,269.9-67,329.5-96.5c59.7-29.6,92.7-47,172.6-48.7s206.5,12.2,302-2.6s159.7-58.3,197.4-103.5
	c37.6-45.2,48.7-92.2,34-133.1C2431.4,624.7,2391,589.9,2286.3,544.7z"/>
<path class="st01" d="M1079.3,1071.3c117.8,0.1,237.3-8.5,331.3-21.4c183.6-25.2,269.9-67,329.5-96.5c59.7-29.6,92.7-47,172.6-48.7
	s206.5,12.2,302-2.6s159.7-58.3,197.4-103.5c37.6-45.2,48.7-92.2,34-133c-13.7-38.2-50-71.1-140.2-112.2
	c19.3,20.7,27.9,41.3,31.7,63.7c6.1,36.6-0.7,77.9-35.6,115.3c-34.9,37.4-97.8,70.8-175,84.1s-168.6,6.4-252.7,21.4
	s-160.7,51.9-238.4,89.7c-77.7,37.9-156.3,76.7-255.6,102.5C1288.5,1053.7,1179.2,1066.4,1079.3,1071.3z"/>
<path class="st11" d="M1828.9,599.7c-52.6-26.4-150.6-36.7-214.4-16.4c-63.7,20.3-93.3,71.3-69.7,106.8
	c23.6,35.5,100.3,55.5,167.7,56.4c67.4,1,125.5-17.2,150.9-47.5S1881.5,626.1,1828.9,599.7z"/>
<path class="st31" d="M1803,619.6c-28.6-10.8-77.2-16.6-112.4-13.7c-35.2,2.9-57.2,14.5-66.2,30c-9.1,15.5-5.2,35,8.6,48.9
	c13.8,13.9,37.6,22.4,68.8,25.5c31.2,3.2,69.8,1.1,95.5-7.9c25.7-8.9,38.6-24.7,40.7-40.5C1840.2,646.1,1831.6,630.4,1803,619.6z"/>
<path class="st01" d="M1780.1,612.9c-27.7-6.3-62.5-9.2-89.5-7c-35.2,2.9-57.2,14.5-66.2,30c-1.1,1.8-2,3.7-2.7,5.7
	c-0.4,9.8,3.7,19.8,11.6,27.7c11.9,12,32.5,19.3,59.5,22s60.3,0.9,82.5-6.8s33.3-21.4,35.2-35c1.9-13.6-5.6-27.3-30.2-36.6
	L1780.1,612.9z"/>
<path class="st11" d="M1855.9,623.7c31.3,7,79,12.9,140.5,32.6c61.4,19.7,136.7,53.1,191,83.3c54.3,30.2,87.7,57.3,117.6,73.7
	c29.9,16.5,56.2,22.4,73.6,23.8c17.5,1.5,26.1-1.5,30.1-3c4.1-1.5,3.6-1.5-17.3,10.1c-20.9,11.6-62.2,34.7-87,46.9
	c-24.8,12.3-33.2,13.8-34.9,13c-1.7-0.7,3.2-3.7,6.9-11.1c3.7-7.4,6.1-19.2,3.7-33.9c-2.5-14.7-9.8-32.4-31.5-52.4
	c-21.6-19.9-57.5-42-96.6-62.1c-39.1-20-81.4-38-117.2-51.4c-35.9-13.4-65.4-22.2-90.3-25.2c-24.9-2.9-45.3,0-59.2,7.5
	c-13.9,7.5-21.3,19.5-36.6,29.5c-15.4,10-38.7,17.8-45.2,20.5s3.8,0.2,14.4-8.4c10.6-8.6,21.4-23.3,26.8-35.9
	c5.4-12.5,5.4-22.9,0-33.2s-16.2-20.6-25.4-28.6c-9.2-8-16.8-13.6-13.1-12.4C1809.6,608.6,1824.5,616.7,1855.9,623.7z"/>
<path class="st11" d="M1578,619.7c-18.7,2-57,24.6-140.1,38.8c-83.1,14.3-210.9,20.2-314.6,10.3C1019.6,659,940,633.4,887.4,602
	c-52.6-31.5-78.2-68.8-90-93.9s-9.8-37.8-8.8-44.2c1-6.4,1-6.4,1-6.4s0,0-16.7,6.9s-50.1,20.6-81.1,40.3s-59.5,45.2-72.7,57
	c-13.3,11.8-11.3,9.8-3.4,4.4c7.9-5.4,21.6-14.3,36.4-21.6c14.7-7.4,30.5-13.3,52.1-13.8s49.2,4.4,81.6,26.1
	c32.4,21.6,69.8,60,116.5,85.5c46.7,25.6,102.7,38.3,162.2,45.2s122.4,7.9,177.9,8.4s103.7,0.5,146-2.5
	c42.3-2.9,78.6-8.8,108.6-10.3s53.6,1.5,70.3,4.9c16.7,3.4,26.5,7.4,30,2c3.4-5.4,0.5-20.2-0.5-36.9
	C1595.7,636.4,1596.7,617.7,1578,619.7z"/>
<path class="st11" d="M1297.6,699.7c18.7,18.6,55.8,55.2,74,104.3c18.2,49.2,17.5,110.8,8.2,155c-9.2,44.1-26.9,70.7-59.8,90.8
	c-32.9,20.2-81.1,33.9-103.7,40.8s-19.7,6.9,26.1,2c45.7-4.9,134.2-14.7,176-19.7c41.8-4.9,36.9-4.9,29.5-15.2
	c-7.4-10.3-17.2-31-22.1-55.1s-4.9-51.6-5.4-83.6s-1.5-68.3-9.5-97.6c-8-29.2-23-51.4-30.5-70c-7.5-18.7-7.5-33.9-2.6-46.6
	c4.9-12.7,14.7-22.7,17.6-26.2c2.8-3.4-1.4-0.2-22,1.1c-20.6,1.4-57.8,0.9-76.2,0.9C1278.7,680.6,1278.9,681.1,1297.6,699.7z"/>
<path class="st41" d="M1431.9,0c790.8,0,1431.9,352.4,1431.9,787.1s-641.1,787.1-1431.9,787.1C641.1,1574.1,0,1221.8,0,787.1
	S641.1,0,1431.9,0L1431.9,0z M1431.9,38.1c-752.6,0-1362.7,335.3-1362.7,749s610.1,749,1362.7,749s1362.7-335.3,1362.7-749
	S2184.5,38.1,1431.9,38.1z"/>
</svg>
