<?xml version="1.0" encoding="utf-8"?>
<!-- Generator: Adobe Illustrator 23.1.0, SVG Export Plug-In . SVG Version: 6.00 Build 0)  -->
<svg version="1.1" id="iconSVG" xmlns="http://www.w3.org/2000/svg" xmlns:xlink="http://www.w3.org/1999/xlink" x="0px" y="0px"
	 viewBox="0 0 612 588.1" style="enable-background:new 0 0 612 588.1;" xml:space="preserve">
<g>
	<path d="M3.2,189.7l38.3,29.9L5.4,288.7c-18,31.9,12.9,62.9,32.7,73.7c19.4,10.6,49.6,11.9,77.7,11.5l50.7-82.9l38.3,20.7
		l-66.5-123.2L3.2,189.7z M8.8,358.8l82.3,152c16.5,21.1,47.7,26.1,80,25.3h86.8V392.2l-164.5-1.2C67.8,392.6,34.4,387.2,8.8,358.8z
		 M526.3,78.8l-44.8,19l-42.9-65c-19.1-31.2-61.3-19.2-80.3-7.1c-18.7,11.8-34.4,37.6-47.8,62.4l47.9,84.5L321.8,196l140,1.6
		L526.3,78.8z M375.7,1.7L202.9,0C176.4,4.2,157,29.1,142,57.7l-42.1,75.9l125.9,69.8L306.5,60C317.6,36.9,338.5,10.3,375.7,1.7z
		 M383.2,588.1l5.1-48.4l77.7-6c36.6-1.6,46.5-44.3,45.2-66.8c-1.3-22.1-16.2-48.3-31.4-72l-97.2,0.9l-2.7-43.5L310.6,474
		L383.2,588.1z M523.6,493.7l85.3-150.3c9.1-25.2-3.1-54.3-20.9-81.3l-46-73.6l-122,76.3L506.2,405C521,425.8,534.2,457,523.6,493.7
		z"/>
</g>
</svg>
