<?xml version="1.0" encoding="utf-8"?>
<!-- Generator: Adobe Illustrator 23.1.0, SVG Export Plug-In . SVG Version: 6.00 Build 0)  -->
<svg version="1.1" id="Layer_1" xmlns="http://www.w3.org/2000/svg" xmlns:xlink="http://www.w3.org/1999/xlink" x="0px" y="0px"
	 viewBox="0 0 512 350.4" style="enable-background:new 0 0 512 350.4;" xml:space="preserve">
<path d="M172.2,347.3v-97.9c2.5-0.6,5-1.3,7.5-2.1c-14.3-26.2-13-61.7,3.8-86.7c-3.6-22.1,3.5-45.3,18.7-61.5
	c-0.6-4.3-0.7-8.6-0.2-12.9c-2.9-4.5-6.6-8.7-10.8-12.2l-7.9-6.5l3.2-9.7c7.8-20.6-14.2-40.4-29.4-50.3C142,17.2,120,37,127.8,57.6
	l3.2,9.7l-7.9,6.5c-5.2,4.3-9.4,9.4-12.6,15.2c0.2,3.3,0,6.7-0.4,10c15.2,16.2,22.3,39.3,18.7,61.5c16.6,24.9,18.1,60,4.1,86.1
	c3,1.1,6.1,2.1,9.2,2.8v97.9"/>
<path d="M241,347.3"/>
<path d="M271,347.3v-86c37.5-9.9,54.2-57.2,29.6-88.4l-4.5-5.8l1.9-7.1c4.3-16.1-1.4-33.9-14.3-44.4l-7.9-6.5l3.2-9.7
	c6.1-16.1-11.2-31.5-23.1-39.7c-12.3,8.5-29.1,23.7-23.1,39.7l3.2,9.7l-7.9,6.5c-12.9,10.6-18.6,28.4-14.3,44.4l1.9,7.1l-4.5,5.8
	c-24.6,31.2-7.9,78.5,29.6,88.4v86"/>
<path d="M271,347.3"/>
<path d="M339.8,347.3"/>
<path d="M369.8,347.3v-97.9c3.1-0.7,6.2-1.6,9.2-2.8c-14-26.1-12.5-61.2,4.1-86.1c-3.6-22.1,3.5-45.3,18.7-61.5
	c-0.4-3.3-0.6-6.6-0.4-10c-3.2-5.7-7.4-10.9-12.6-15.2l-7.9-6.5l3.2-9.7C392,37,370,17.2,354.8,7.3c-15.2,9.9-37.2,29.7-29.4,50.3
	l3.2,9.7l-7.9,6.5c-4.3,3.5-7.9,7.7-10.8,12.2c0.5,4.3,0.4,8.7-0.2,13c15.2,16.2,22.3,39.3,18.7,61.5c16.8,25.1,18.1,60.6,3.8,86.8
	c2.4,0.9,4.9,1.6,7.5,2.1v97.9"/>
<path d="M369.8,347.3"/>
<path d="M440.7,347.3"/>
<path d="M470.7,347.3L470.7,347.3l0-86c37.5-9.9,54.2-57.2,29.6-88.4l-4.5-5.8l1.9-7.1c4.3-16.1-1.4-33.9-14.3-44.4l-7.9-6.5
	l3.2-9.7c6.1-16.1-11.2-31.5-23.1-39.7c-12.3,8.5-29.1,23.7-23.1,39.7l3.2,9.7l-7.9,6.5c-12.9,10.6-18.6,28.4-14.3,44.4l1.9,7.1
	l-4.5,5.8c-24.6,31.2-7.9,78.5,29.6,88.4v86"/>
<path d="M71.3,347.3v-86c37.5-9.9,54.2-57.2,29.6-88.4l-4.5-5.8l1.9-7.1c4.3-16.1-1.4-33.9-14.3-44.4l-7.9-6.5l3.2-9.7
	C85.5,83.2,68.6,68,56.3,59.6C44.1,68,27.2,83.2,33.2,99.3l3.2,9.7l-7.9,6.5C15.7,126.1,10,143.9,14.3,160l1.9,7.1l-4.5,5.8
	c-24.6,31.2-7.9,78.5,29.6,88.4v86"/>
</svg>
