<?xml version="1.0" encoding="utf-8"?>
<!-- Generator: Adobe Illustrator 24.3.0, SVG Export Plug-In . SVG Version: 6.00 Build 0)  -->
<svg version="1.1" id="Layer_1" xmlns="http://www.w3.org/2000/svg" xmlns:xlink="http://www.w3.org/1999/xlink" x="0px" y="0px"
	 viewBox="0 0 2406.9 261.5" style="enable-background:new 0 0 2406.9 261.5;" xml:space="preserve">
<style type="text/css">
	.st0{fill:#D03634;}
</style>
<g>
	<path class="st0" d="M118.6,261.5l-36.5-36.8L98,208.1v-58H61.5v58l15.9,16.5l-36.8,36.8L4.1,224.6l16.5-16.5V40.6L61.5,0v110.8H98
		V40.6L138.8,0v208.1l16.5,16.5L118.6,261.5z"/>
	<path class="st0" d="M200,261.5l-36.5-36.8l16.5-16.5V40.6L220.9,0v208.1l15.9,16.5L200,261.5z"/>
	<path class="st0" d="M301.1,261.5l-53-53.4V55.8l56.2-56.2L362.8,59L332,89.2l-43.7-44.6v150.7l10.6,10.3l22.8-22.5v-27.8
		l40.6-40.9v85.8L301.1,261.5z"/>
	<path class="st0" d="M487.6,261.5l-36.5-36.8l15.9-16.5v-58h-36.5v58l15.9,16.5l-36.8,36.8l-36.5-36.8l16.5-16.5V40.6L430.5,0
		v110.8h36.5V40.6L507.9,0v208.1l16.5,16.5L487.6,261.5z"/>
	<path class="st0" d="M532.6,36.8L569.1,0l36.8,36.8L590,53.4v128.5l34.9,34.9V53.4l-16.2-16.5L645.2,0l36.5,36.8l-15.9,16.5v128.5
		l34.9,34.9V53.4l-16.2-16.5L721.3,0l36.2,36.8l-16.2,16.5v148.2l-60.5,59.9l-38.4-37.8L605,261.5l-55.8-55.8V53.4L532.6,36.8z"/>
	<path class="st0" d="M858.6,261.5l-36.2-36.8l16.2-16.5v-33.4h-34.9v33.4l15.9,16.5l-36.8,36.8l-36.5-36.8l16.5-16.5V60.2L823.7,0
		l55.8,55.8v152.3l15.9,16.5L858.6,261.5z M838.6,80.2l-34.9-35.6v87.7h34.9V80.2z"/>
	<path class="st0" d="M957.8,261.5l-36.5-36.8l16.5-16.5v-54L900.7,117V53l-16.5-16.5L921-0.3l36.5,36.8L941.6,53V93l34.9,35.3V53
		L960,36.5l36.8-36.8l36.5,36.8L1017.4,53v59.6L978.1,151v57.1l16.5,16.5L957.8,261.5z"/>
	<path class="st0" d="M1231.1,40.6h-20.3v167.5l16.5,16.5l-36.8,36.8l-36.5-36.8l16.2-16.5V40.6h-50.5L1160,0h111.4L1231.1,40.6z"/>
	<path class="st0" d="M1307.6,261.5l-53-53.4V55.8l56.2-56.2l57.4,57.4v144.5L1307.6,261.5z M1327.5,77.4l-32.8-32.8v150.7
		l10.6,10.3l22.2-22.2V77.4z"/>
	<path class="st0" d="M1553.4,89.9l-44-44v149.4l10.3,10l33.4-32.8l29.6,29l-60.5,59.9l-53-53.4V55.8l56.2-56.2L1584,59L1553.4,89.9
		z"/>
	<path class="st0" d="M1643.6,261.5l-53-53.4V55.8l56.2-56.2l57.4,57.4v144.5L1643.6,261.5z M1663.6,77.4l-32.8-32.8v150.7
		l10.6,10.3l22.2-22.2V77.4z"/>
	<path class="st0" d="M1751.9,261.5l-36.5-36.5v-33.1l53.8-53.6v-35l-35.7,35.9l-18.2-18.4l38.7-38.5l40,40.6v27.3l-58.1,58.5
		l22.2,22.4h35.9v30.3H1751.9z"/>
	<path class="st0" d="M2004.4,261.5l-36.5-36.8l15.9-16.5v-58h-36.5v58l15.9,16.5l-36.8,36.8l-36.5-36.8l16.5-16.5V40.6L1947.3,0
		v110.8h36.5V40.6L2024.7,0v208.1l16.5,16.5L2004.4,261.5z"/>
	<path class="st0" d="M2135.8,89.2l-43.7-44.6v66.1h60.8l-39,39.3h-21.8v45.2l10.6,10.3l33.1-33.1l29.6,29l-60.5,59.9l-53-53.4V55.8
		L2108-0.3l58.7,58.7L2135.8,89.2z"/>
	<path class="st0" d="M2226.2,261.5l-53-53.4V39.9l40.2-40.2v195.6l10.6,10.3l33.1-33.1l29.6,29L2226.2,261.5z"/>
	<path class="st0" d="M2346.4,261.5l-53-53.4V39.9l40.2-40.2v195.6l10.6,10.3l33.1-33.1l29.6,29L2346.4,261.5z"/>
</g>
</svg>
