<?xml version="1.0" encoding="utf-8"?>
<!-- Generator: Adobe Illustrator 24.3.0, SVG Export Plug-In . SVG Version: 6.00 Build 0)  -->
<svg version="1.1" id="Layer_1" xmlns="http://www.w3.org/2000/svg" xmlns:xlink="http://www.w3.org/1999/xlink" x="0px" y="0px"
	 viewBox="0 0 512 469.3" style="enable-background:new 0 0 512 469.3;" xml:space="preserve">
<g>
	<g>
		<g>
			<path d="M341.6,64c-0.1,0-0.2,0-0.2,0H222.2l27.6-27.6c8.3-8.3,8.3-21.8,0-30.2s-21.8-8.3-30.2,0l-64,64c-0.5,0.5-1,1-1.4,1.6
				c-0.2,0.2-0.4,0.5-0.6,0.8c-0.2,0.3-0.5,0.6-0.7,0.9c-0.2,0.3-0.4,0.6-0.6,0.9c-0.2,0.3-0.4,0.6-0.5,0.9c-0.2,0.3-0.3,0.6-0.5,1
				c-0.1,0.3-0.3,0.6-0.4,0.9c-0.1,0.3-0.2,0.6-0.3,1c-0.1,0.3-0.3,0.7-0.4,1c-0.1,0.3-0.2,0.6-0.2,1c-0.1,0.4-0.2,0.7-0.3,1.1
				c-0.1,0.4-0.1,0.7-0.2,1.1c0,0.3-0.1,0.6-0.1,0.9c-0.1,0.7-0.1,1.4-0.1,2.1c0,0,0,0,0,0c0,0,0,0,0,0c0,0.7,0,1.4,0.1,2.1
				c0,0.3,0.1,0.6,0.1,0.9c0.1,0.4,0.1,0.8,0.2,1.1c0.1,0.4,0.2,0.7,0.3,1.1c0.1,0.3,0.2,0.6,0.2,1c0.1,0.3,0.2,0.7,0.4,1
				c0.1,0.3,0.2,0.6,0.3,1c0.1,0.3,0.3,0.6,0.4,0.9c0.2,0.3,0.3,0.6,0.5,1c0.2,0.3,0.3,0.6,0.5,0.9c0.2,0.3,0.4,0.6,0.6,0.9
				c0.2,0.3,0.4,0.6,0.7,0.9c0.2,0.3,0.4,0.5,0.6,0.8c0.4,0.5,0.9,1.1,1.4,1.6l64,64c8.3,8.3,21.8,8.3,30.2,0s8.3-21.8,0-30.2
				l-27.6-27.6h119c0.1,0,0.1,0,0.2,0c70.8,0,128,57.2,128,128c0,31.1-12.4,60.3-34.1,82c-8.3,8.3-8.3,21.8,0,30.2s21.8,8.3,30.2,0
				C495,317.2,512,277.2,512,234.7C512,140.4,435.8,64.1,341.6,64z"/>
			<path d="M358.4,396.8c0.2-0.3,0.5-0.6,0.7-0.9c0.2-0.3,0.4-0.6,0.6-0.9c0.2-0.3,0.4-0.6,0.5-0.9c0.2-0.3,0.3-0.6,0.5-1
				c0.1-0.3,0.3-0.6,0.4-0.9c0.1-0.3,0.2-0.6,0.4-1c0.1-0.3,0.2-0.7,0.4-1c0.1-0.3,0.2-0.6,0.2-1c0.1-0.4,0.2-0.7,0.3-1.1
				c0.1-0.4,0.1-0.8,0.2-1.1c0-0.3,0.1-0.6,0.1-0.9c0.1-1.4,0.1-2.8,0-4.2c0-0.3-0.1-0.6-0.1-0.9c-0.1-0.4-0.1-0.8-0.2-1.1
				c-0.1-0.4-0.2-0.7-0.3-1.1c-0.1-0.3-0.2-0.6-0.2-1c-0.1-0.3-0.2-0.7-0.4-1c-0.1-0.3-0.2-0.6-0.4-1c-0.1-0.3-0.3-0.6-0.4-0.9
				c-0.2-0.3-0.3-0.7-0.5-1c-0.2-0.3-0.3-0.6-0.5-0.9c-0.2-0.3-0.4-0.6-0.6-0.9c-0.2-0.3-0.4-0.6-0.7-0.9c-0.2-0.3-0.4-0.5-0.6-0.8
				c-0.4-0.5-0.9-1-1.4-1.5c0,0,0,0,0,0l-64-64c-8.3-8.3-21.8-8.3-30.2,0c-8.3,8.3-8.3,21.8,0,30.2l27.6,27.6h-119
				c-0.1,0-0.1,0-0.2,0c-70.8,0-128-57.2-128-128c0-31.1,12.4-60.3,34.1-82c8.3-8.3,8.3-21.8,0-30.2s-21.8-8.3-30.2,0
				C17,152.1,0,192.1,0,234.7c0,94.3,76.2,170.5,170.4,170.7c0.1,0,0.2,0,0.2,0h119.2l-27.6,27.6c-8.3,8.3-8.3,21.8,0,30.2
				c8.3,8.3,21.8,8.3,30.2,0l64-64c0,0,0,0,0,0c0.5-0.5,1-1,1.4-1.6C358,397.3,358.2,397,358.4,396.8z"/>
		</g>
	</g>
</g>
</svg>
